<svg xmlns="http://www.w3.org/2000/svg" width="160" height="50"><path fill-rule="evenodd" clip-rule="evenodd" fill="#FFF" d="M23.095 12.532l5.799 4.699-4.433-5.168c-.467.138-.898.301-1.366.469M25.229 11.899l4.268 4.697-3.034-4.898a7.53 7.53 0 0 0-1.234.201M27.262 11.601l2.899 4.498-1.899-4.498h-.165zM30.896 15.665l-.965-3.967c-.271-.031-.535-.064-.837-.064l1.802 4.031zM31.693 15.365l-.265-3.366c-.231-.066-.467-.1-.666-.132l.931 3.498zM32.827 12.434c-.233-.069-.469-.169-.701-.233l.402 3.034.299-2.801zM33.429 12.667l-.069 2.532.633-2.266c-.165-.067-.364-.169-.564-.266M34.528 13.2l-.3 2.1.897-1.734c-.197-.133-.398-.233-.597-.366M37.263 15.163l-.736 1.202 1.166-.801c-.133-.131-.267-.264-.43-.401M38.427 16.365c-.135-.135-.268-.302-.4-.433l-.899 1 1.299-.567zM39.092 17.198c-.132-.133-.233-.301-.363-.465l-1.067.864 1.43-.399zM39.361 17.63l-1.267.703 1.599-.235c-.099-.163-.234-.332-.332-.468M39.96 18.565l-1.598.566 1.864-.037a3.588 3.588 0 0 1-.266-.529M40.495 19.663l-1.969.305 2.202.23c-.069-.166-.166-.366-.233-.535M41.327 22.295l-2.864-.631 2.996 1.232a3.675 3.675 0 0 0-.132-.601M37.893 23.264l3.7 3.134c.032-.302.032-.635.032-.967l-3.732-2.167zM40.527 30.561c.167-.399.333-.866.496-1.297l-4.195-4.669 3.699 5.966zM35.429 25.527l2.232 9.237c.434-.436.865-.902 1.234-1.401l-3.466-7.836zM34.63 25.831l.864 10.698c.564-.4 1.131-.798 1.633-1.267l-2.497-9.431zM33.796 25.997l-.933 11.863c.729-.301 1.396-.597 2.064-1l-1.131-10.863zM32.295 38.062l.631-12.03-2.995 12.563a17.794 17.794 0 0 0 2.364-.533M28.097 38.729c.431 0 .864-.033 1.264-.069l2.733-12.729-5.265 12.729c.433.036.832.069 1.268.069M26.294 38.594l4.964-12.896-7.495 12.297c.799.298 1.666.5 2.531.599M23.264 37.828l7.232-12.496-9.634 11.295c.771.501 1.568.902 2.402 1.201M20.464 36.363l9.333-11.499-11.401 9.764c.635.635 1.3 1.234 2.068 1.735M16.198 31.662l12.431-8.064-13.501 5.63c.27.869.636 1.668 1.07 2.434M14.665 23.131c-.104.668-.136 1.33-.136 2.032v.468l13.399-3.565-13.263 1.065zM15.63 19.731l12.098.635-11.03-2.6c-.398.633-.767 1.267-1.068 1.965M28.063 18.732l-7.699-4.734c-.534.367-1.001.769-1.466 1.165l9.165 3.569zM20.964 13.633l7.465 4.302-5.999-5.105a10.3 10.3 0 0 0-1.466.803"/><path fill="#FFF" d="M106.107 19.578h-1.411l3.624 7.634h1.545l3.599-7.634h-1.31l-3.044 6.742zM113.999 19.579h1.24v7.633h-1.24zM121.665 27.081a2.57 2.57 0 0 0 .364-.127c.393-.173.695-.424.906-.743.209-.321.313-.71.313-1.148 0-.38-.071-.723-.212-1.03a1.971 1.971 0 0 0-.596-.754 2.012 2.012 0 0 0-.374-.206 2.268 2.268 0 0 0-.504-.137 6.348 6.348 0 0 0-.699-.073 17.795 17.795 0 0 0-.969-.024h-.519c-.756 0-1.233-.075-1.514-.231-.328-.186-.478-.467-.478-.879 0-.232.062-.344.149-.511.095-.175.239-.265.38-.356l.026-.016c.159-.087.343-.146.553-.181a5.37 5.37 0 0 1 .885-.057h3.47v-1.029h-3.47c-.507 0-.93.025-1.248.074a3.053 3.053 0 0 0-.826.245 2.277 2.277 0 0 0-.889.801c-.213.335-.32.719-.32 1.147 0 .345.074.653.217.923.142.267.354.484.624.646.216.137.493.234.825.294.334.06.779.093 1.314.093h.713c.356 0 .636.006.827.019.195.008.356.034.481.066.27.076.479.222.62.437.161.237.228.504.215.795-.022.411-.162.638-.498.822-.177.095-.483.154-.604.173a5.42 5.42 0 0 1-.788.05h-3.649v1.049h3.48c.305 0 .561-.004.783-.01.211-.006.403-.02.57-.041a2.67 2.67 0 0 0 .442-.081M124.022 19.579h1.239v7.633h-1.239zM140.94 25.988l-4.53-6.41h-1.524v7.634h1.174V20.83l4.583 6.382h1.472v-7.634h-1.175zM130.105 19.418a3.977 3.977 0 0 0 0 7.953 3.983 3.983 0 0 0 3.981-3.979 3.981 3.981 0 0 0-3.981-3.974m0 6.825a2.852 2.852 0 0 1-2.846-2.852 2.852 2.852 0 0 1 2.846-2.848 2.858 2.858 0 0 1 2.856 2.848 2.857 2.857 0 0 1-2.856 2.852M52.022 24.301l-2.982-4.727h-2.434v7.624h2.046l-.006-4.996 3.15 4.996h2.253v-7.624h-2.033zM78.93 19.574l-1.592 5.122-1.653-5.122H73.41l-1.433 5.099-1.699-5.099H58.82c-2.781 0-4.252 1.365-4.252 3.945 0 1.2.565 2.269 1.593 3.011.861.619 1.692.668 2.616.668h3.038v-1.645h-2.961c-.823 0-2.178-.187-2.318-1.389h5.279v-1.646h-5.253c.187-.876 1.216-1.274 2.215-1.274l3.206.003h2.122v5.951h2.127v-5.967h2.431l2.199 5.967H73.2l1.362-4.915 1.554 4.915h2.344l2.612-7.624H78.93zM96.396 21.947c0-1.618-.953-2.374-2.998-2.374h-4.347v7.625h2.072v-2.842h1.688l1.766 2.842h2.365l-2.046-3.097c.957-.288 1.5-1.06 1.5-2.154m-5.273-.695h1.875c1.115 0 1.301.219 1.301.713 0 .491-.192.726-1.301.726h-1.875v-1.439z"/><path fill="#FFF" d="M101.309 23.308l3.39-3.734h-2.543l-2.879 3.173v-3.173h-2.075v7.624h2.075v-3.265l2.777 3.265h2.672zM84.54 19.304a4.116 4.116 0 0 0-4.111 4.11 4.118 4.118 0 0 0 4.111 4.116 4.123 4.123 0 0 0 4.119-4.116 4.12 4.12 0 0 0-4.119-4.11m0 6.353a2.242 2.242 0 1 1 .009-4.485 2.242 2.242 0 0 1-.009 4.485M47.765 32.975l.829-3.317h.806l.817 3.317.745-3.317h.688l-1.043 3.956h-.817l-.799-3.22-.843 3.22h-.817l-1.007-3.956h.708zM55.337 30.156h-1.185c-.146 0-.274.008-.385.024a1.068 1.068 0 0 0-.289.081.738.738 0 0 0-.218.146c-.06.06-.117.133-.17.222a1.07 1.07 0 0 0-.131.31c-.015.056-.026.12-.034.191a3.796 3.796 0 0 0-.018.247h2.429v.498H52.9c.004.299.069.556.195.774a.862.862 0 0 0 .382.361c.152.069.365.104.638.104h1.221v.498H54c-.179 0-.34-.009-.482-.029-.142-.02-.27-.052-.381-.095a1.24 1.24 0 0 1-.559-.427 1.714 1.714 0 0 1-.299-.586 2.718 2.718 0 0 1-.092-.761c0-.803.238-1.388.714-1.751a1.43 1.43 0 0 1 .522-.234c.205-.049.46-.073.766-.073h1.147v.5zM56.301 29.658h1.946c.158 0 .296.005.414.015s.222.026.312.05c.089.023.165.056.229.096s.123.089.181.147a1.023 1.023 0 0 1 .267.708c0 .419-.208.723-.624.909.245.084.422.197.53.34.106.146.161.335.161.573 0 .196-.041.376-.122.535a.91.91 0 0 1-.354.376 1.293 1.293 0 0 1-.449.158 4.117 4.117 0 0 1-.7.049h-1.79v-3.956zm1.947 1.679c.131 0 .234-.01.313-.027s.147-.049.204-.093c.142-.108.213-.266.213-.473a.754.754 0 0 0-.042-.253.477.477 0 0 0-.128-.19.427.427 0 0 0-.201-.114 1.499 1.499 0 0 0-.359-.03h-1.289v1.181h1.289zm-.054 1.779c.551 0 .827-.22.827-.66 0-.224-.06-.383-.18-.479-.12-.095-.317-.142-.594-.142h-1.289v1.28h1.236zM65.445 33.614h-1.263c-.191 0-.361-.008-.51-.022a2.312 2.312 0 0 1-.402-.078 1.278 1.278 0 0 1-.584-.35 1.676 1.676 0 0 1-.385-.645 2.549 2.549 0 0 1-.139-.856 2.732 2.732 0 0 1 .2-1.026 1.87 1.87 0 0 1 .233-.406c.093-.12.194-.221.305-.3.139-.096.308-.165.507-.208.199-.044.444-.064.737-.064h1.3v.498h-1.263c-.143 0-.266.005-.369.015s-.194.027-.271.054a.8.8 0 0 0-.201.098.794.794 0 0 0-.159.149 1.36 1.36 0 0 0-.237.513c-.058.214-.086.446-.086.697s.033.472.098.667c.065.194.156.354.274.482a.778.778 0 0 0 .375.223c.08.021.17.038.272.047.102.012.221.016.359.016h1.208v.496zM67.936 29.599c1.269 0 1.903.676 1.903 2.028 0 .388-.048.712-.144.971a1.5 1.5 0 0 1-.448.644c-.354.288-.824.434-1.41.434-.35 0-.655-.051-.918-.154a1.447 1.447 0 0 1-.625-.452 1.22 1.22 0 0 1-.165-.272 2.626 2.626 0 0 1-.204-.739 2.98 2.98 0 0 1-.027-.412c0-.305.043-.589.128-.853a1.67 1.67 0 0 1 .348-.631c.179-.193.395-.336.646-.428.252-.091.557-.136.916-.136m-.062.497c-.275 0-.509.052-.698.156a.983.983 0 0 0-.426.446 1.708 1.708 0 0 0-.114.408 3.04 3.04 0 0 0-.043.527c0 .54.102.933.307 1.176.204.244.531.366.98.366.575 0 .951-.204 1.129-.613a1.54 1.54 0 0 0 .098-.385c.024-.164.036-.336.036-.515 0-.246-.021-.468-.061-.664s-.099-.35-.176-.456c-.203-.296-.546-.446-1.032-.446M73.023 32.885l1.233-3.227h.958v3.957h-.629v-3.364l-1.269 3.364h-.647l-1.311-3.364v3.364h-.629v-3.957h.958zM76.94 32.014c0 .229.015.409.045.539a.683.683 0 0 0 .155.314c.174.205.463.309.867.309.23 0 .429-.034.592-.101a.74.74 0 0 0 .366-.297.446.446 0 0 0 .059-.122 1.34 1.34 0 0 0 .036-.16 1.75 1.75 0 0 0 .021-.222c.004-.088.006-.19.006-.309v-2.302h.659v2.302c0 .189-.005.35-.016.479-.01.132-.029.245-.058.342a.875.875 0 0 1-.116.252 1.124 1.124 0 0 1-.183.207c-.321.284-.806.429-1.452.429-.338 0-.62-.047-.846-.139s-.408-.236-.546-.432a.912.912 0 0 1-.118-.202 1.326 1.326 0 0 1-.077-.233 1.874 1.874 0 0 1-.042-.288 4.422 4.422 0 0 1-.013-.367v-2.35h.659v2.351zM81.442 33.614h-.628v-3.956h.775l2.081 3.167v-3.167h.628v3.956h-.75l-2.106-3.155zM85.415 29.658h.659v3.956h-.659zM90.234 33.614h-1.263c-.191 0-.361-.008-.51-.022-.148-.016-.282-.043-.402-.078a1.302 1.302 0 0 1-.584-.35 1.676 1.676 0 0 1-.385-.645 2.574 2.574 0 0 1-.139-.856 2.603 2.603 0 0 1 .2-1.026c.063-.15.141-.286.233-.406s.194-.221.305-.3c.139-.096.307-.165.507-.208.199-.044.444-.064.737-.064h1.3v.498H88.97c-.143 0-.266.005-.369.015s-.194.027-.271.054a.8.8 0 0 0-.201.098.822.822 0 0 0-.159.149 1.36 1.36 0 0 0-.237.513c-.058.214-.086.446-.086.697s.032.472.098.667c.065.194.157.354.275.482a.75.75 0 0 0 .374.223c.08.021.17.038.271.047.103.012.223.016.36.016h1.208v.496zM92.474 29.658h.854l1.616 3.956h-.689l-.414-1.031h-1.929l-.433 1.031h-.689l1.684-3.956zm-.367 2.426h1.525l-.743-1.945-.782 1.945zM95.451 30.156v-.498h3.392v.63l-2.678 2.828h2.678v.498h-3.392v-.63l2.709-2.828zM99.771 29.658h.659v3.956h-.659zM103.346 29.599c1.27 0 1.903.676 1.903 2.028 0 .388-.048.712-.143.971-.096.26-.246.474-.449.644-.353.288-.823.434-1.408.434-.351 0-.656-.051-.919-.154s-.471-.254-.625-.452c-.062-.074-.116-.166-.165-.272s-.091-.223-.125-.348a2.76 2.76 0 0 1-.079-.391 2.833 2.833 0 0 1-.028-.412c0-.305.043-.589.129-.853a1.67 1.67 0 0 1 .348-.631c.179-.193.395-.336.646-.428.252-.091.557-.136.915-.136m-.061.497c-.275 0-.509.052-.698.156a.983.983 0 0 0-.426.446 1.705 1.705 0 0 0-.115.408c-.028.165-.042.34-.042.527 0 .54.103.933.306 1.176.205.244.532.366.981.366.575 0 .951-.204 1.13-.613a1.59 1.59 0 0 0 .097-.385c.024-.164.036-.336.036-.515 0-.246-.02-.468-.061-.664-.04-.196-.1-.35-.176-.456-.203-.296-.546-.446-1.032-.446M106.769 33.614h-.629v-3.956h.775l2.08 3.167v-3.167h.629v3.956h-.75l-2.105-3.155zM113.657 30.156h-1.184c-.146 0-.274.008-.385.024a1.068 1.068 0 0 0-.289.081.72.72 0 0 0-.217.146c-.062.06-.118.133-.172.222a1.205 1.205 0 0 0-.164.501 4.585 4.585 0 0 0-.019.247h2.429v.498h-2.435c.004.299.069.556.195.774a.867.867 0 0 0 .382.361c.152.069.364.104.637.104h1.221v.498h-1.336c-.18 0-.34-.009-.482-.029a1.711 1.711 0 0 1-.381-.095 1.212 1.212 0 0 1-.559-.427 1.714 1.714 0 0 1-.299-.586 2.756 2.756 0 0 1-.092-.761c0-.803.238-1.388.714-1.751.143-.106.316-.184.521-.234.206-.049.461-.073.767-.073h1.146v.5zM119.667 31.354v2.26h-1.508c-.195 0-.365-.007-.512-.02a2.359 2.359 0 0 1-.391-.068 1.302 1.302 0 0 1-.309-.128 1.518 1.518 0 0 1-.665-.825 2.903 2.903 0 0 1-.125-.916c0-.875.251-1.457.751-1.75a1.34 1.34 0 0 1 .24-.119c.084-.031.176-.057.275-.077.1-.02.212-.033.338-.041.127-.009.27-.012.428-.012h1.477v.498h-1.419c-.134 0-.245.003-.332.006a1.507 1.507 0 0 0-.226.024c-.063.011-.118.027-.167.047s-.099.046-.152.077c-.344.206-.517.641-.517 1.3 0 .126.004.242.012.344.008.104.021.197.039.28a1.31 1.31 0 0 0 .364.656c.063.055.139.1.228.133.09.034.193.059.313.073.119.012.264.02.434.02h.764v-1.263h-1.25v-.499h1.91zM121.338 33.614h-.659v-3.956h1.855c.293 0 .528.019.707.056.18.038.328.096.445.176a.998.998 0 0 1 .309.37c.075.153.113.318.113.496 0 .17-.031.325-.092.467a.855.855 0 0 1-.269.347.931.931 0 0 1-.208.131 1.888 1.888 0 0 1-.28.096c.135.059.247.121.339.186a.826.826 0 0 1 .223.234c.057.092.1.202.129.332.027.131.049.287.061.469.008.118.015.21.018.272a.793.793 0 0 0 .046.243l.046.082h-.677l-.027-.065a.523.523 0 0 1-.021-.101l-.019-.225a3.148 3.148 0 0 0-.019-.178 1.915 1.915 0 0 0-.115-.523.797.797 0 0 0-.245-.34.996.996 0 0 0-.409-.184 2.753 2.753 0 0 0-.606-.058h-.644v1.673zm1.152-2.17c.19 0 .339-.01.446-.031a.579.579 0 0 0 .252-.102c.149-.12.225-.291.225-.515a.79.79 0 0 0-.07-.341.46.46 0 0 0-.203-.222.758.758 0 0 0-.228-.062 3.942 3.942 0 0 0-.422-.017h-1.152v1.288h1.152zM126.299 29.658h.854l1.617 3.956h-.689l-.415-1.031h-1.928l-.434 1.031h-.689l1.684-3.956zm-.366 2.426h1.524l-.744-1.945-.78 1.945zM132.467 31.877h-2.38v1.737h-.658V31.23c0-.111.002-.208.005-.291.005-.084.012-.157.022-.223a1.066 1.066 0 0 1 .114-.347c.151-.301.407-.508.767-.624.199-.06.509-.088.928-.088h1.202v.498h-1.257c-.208 0-.382.017-.524.054a.821.821 0 0 0-.345.17.672.672 0 0 0-.192.307 1.501 1.501 0 0 0-.062.464v.229h2.38v.498zM133.376 29.658h.659v3.956h-.659zM138.196 33.614h-1.264c-.191 0-.361-.008-.51-.022-.148-.016-.282-.043-.402-.078a1.278 1.278 0 0 1-.584-.35 1.688 1.688 0 0 1-.385-.645 2.732 2.732 0 0 1 .061-1.882 1.87 1.87 0 0 1 .233-.406c.093-.12.194-.221.305-.3a1.4 1.4 0 0 1 .506-.208c.2-.044.446-.064.738-.064h1.301v.498h-1.264a3.89 3.89 0 0 0-.369.015 1.17 1.17 0 0 0-.271.054.8.8 0 0 0-.201.098.822.822 0 0 0-.159.149 1.36 1.36 0 0 0-.237.513c-.058.214-.086.446-.086.697s.032.472.098.667c.065.194.157.354.275.482a.75.75 0 0 0 .375.223c.079.021.17.038.271.047.102.012.222.016.359.016h1.209v.496zM140.435 29.658h.855l1.616 3.956h-.689l-.415-1.031h-1.928l-.434 1.031h-.689l1.684-3.956zm-.366 2.426h1.525l-.745-1.945-.78 1.945z"/></svg>