<?xml version="1.0" encoding="utf-8"?>
<!-- Generator: Adobe Illustrator 22.1.0, SVG Export Plug-In . SVG Version: 6.00 Build 0)  -->
<svg version="1.1" id="Layer_1" xmlns="http://www.w3.org/2000/svg" xmlns:xlink="http://www.w3.org/1999/xlink" x="0px" y="0px"
	 viewBox="0 0 160 50" style="enable-background:new 0 0 160 50;" xml:space="preserve">
<style type="text/css">
	.st0{fill:#FFFFFF;}
</style>
<g>
	<path class="st0" d="M98.2,19.1H96l5.6,11.8h2.4l5.6-11.8h-2l-4.7,10.4L98.2,19.1z M110.4,19.1h1.9v11.8h-1.9V19.1z M122.3,30.7
		c0.2-0.1,0.4-0.1,0.6-0.2c0.6-0.3,1.1-0.7,1.4-1.2c0.3-0.5,0.5-1.1,0.5-1.8c0-0.6-0.1-1.1-0.3-1.6c-0.2-0.5-0.5-0.9-0.9-1.2
		c-0.2-0.1-0.4-0.2-0.6-0.3c-0.3-0.1-0.5-0.2-0.8-0.2c-0.4-0.1-0.7-0.1-1.1-0.1c-0.5,0-1,0-1.5,0h-0.8c-1.2,0-1.9-0.1-2.3-0.4
		c-0.5-0.3-0.7-0.7-0.7-1.4c0-0.4,0.1-0.5,0.2-0.8c0.1-0.3,0.4-0.4,0.6-0.6l0,0c0.2-0.1,0.5-0.2,0.9-0.3c0.5-0.1,0.9-0.1,1.4-0.1
		h5.4v-1.6h-5.4c-0.8,0-1.4,0-1.9,0.1c-0.4,0.1-0.9,0.2-1.3,0.4c-0.6,0.3-1,0.7-1.4,1.2c-0.3,0.5-0.5,1.1-0.5,1.8
		c0,0.5,0.1,1,0.3,1.4c0.2,0.4,0.5,0.8,1,1c0.3,0.2,0.8,0.4,1.3,0.5c0.5,0.1,1.2,0.1,2,0.1h1.1c0.6,0,1,0,1.3,0
		c0.3,0,0.6,0.1,0.7,0.1c0.4,0.1,0.7,0.3,1,0.7c0.2,0.4,0.4,0.8,0.3,1.2c0,0.6-0.3,1-0.8,1.3c-0.3,0.1-0.7,0.2-0.9,0.3
		c-0.4,0.1-0.8,0.1-1.2,0.1h-5.7v1.6h5.4c0.5,0,0.9,0,1.2,0c0.3,0,0.6,0,0.9-0.1C121.9,30.8,122.1,30.7,122.3,30.7 M126,19.1h1.9
		v11.8H126V19.1z M152.2,29l-7-9.9h-2.4v11.8h1.8V21l7.1,9.9h2.3V19.1h-1.8V29z M135.4,18.8c-3.4,0.1-6.1,2.9-6.1,6.3
		c0.1,3.3,2.7,6,6.1,6.1c3.4,0,6.2-2.8,6.2-6.2C141.6,21.6,138.8,18.8,135.4,18.8 M135.4,29.4c-2.4,0-4.4-2-4.4-4.4
		c0-2.4,2-4.4,4.4-4.4c2.4,0,4.4,2,4.4,4.4C139.8,27.4,137.8,29.4,135.4,29.4 M14.4,26.4L9.8,19H6v11.8h3.2l0-7.7l4.9,7.7h3.5V19
		h-3.2L14.4,26.4z M56.1,19L53.6,27L51.1,19h-3.5l-2.2,7.9L42.7,19H24.9c-4.3,0-6.6,2.1-6.6,6.1c0,1.9,0.9,3.5,2.5,4.7
		c1.3,1,2.6,1,4.1,1h4.7v-2.5H25c-1.3,0-3.4-0.3-3.6-2.2h8.2v-2.6h-8.1c0.3-1.4,1.9-2,3.4-2l5,0h3.3v9.2h3.3v-9.2h3.8l3.4,9.2h3.6
		l2.1-7.6l2.4,7.6h3.6l4-11.8C59.4,19,56.1,19,56.1,19z M83.2,22.7c0-2.5-1.5-3.7-4.6-3.7h-6.7v11.8H75v-4.4h2.6l2.7,4.4H84
		l-3.2-4.8C82.3,25.6,83.2,24.4,83.2,22.7 M75,21.6h2.9c1.7,0,2,0.3,2,1.1c0,0.8-0.3,1.1-2,1.1H75V21.6z"/>
	<path class="st0" d="M90.8,24.8L96,19h-3.9L87.6,24V19h-3.2v11.8h3.2v-5.1l4.3,5.1h4.1L90.8,24.8z M64.8,18.6
		c-3.5,0-6.4,2.9-6.4,6.4c0,3.5,2.9,6.4,6.4,6.4c3.5,0,6.4-2.9,6.4-6.4C71.2,21.5,68.3,18.6,64.8,18.6 M64.8,28.5
		c-1.9,0-3.5-1.6-3.5-3.5s1.6-3.5,3.5-3.5c1.9,0,3.5,1.6,3.5,3.5S66.7,28.5,64.8,28.5L64.8,28.5"/>
</g>
</svg>
