<?xml version="1.0" encoding="utf-8"?>
<!-- Generator: Adobe Illustrator 25.3.1, SVG Export Plug-In . SVG Version: 6.00 Build 0)  -->
<svg version="1.1" id="Layer_1" xmlns="http://www.w3.org/2000/svg" xmlns:xlink="http://www.w3.org/1999/xlink" x="0px" y="0px"
	 viewBox="0 0 160 50" style="enable-background:new 0 0 160 50;" xml:space="preserve">
<style type="text/css">
	.st0{fill:#FFFFFF;}
</style>
<g id="XMLID_1_">
	<g id="XMLID_578_">
		<path id="XMLID_581_" class="st0" d="M41.9,26.4l0.2-7.8c0-2-1-3.6-2.6-4.2c-1.8-0.7-3.8,0-5.3,1.8l-6.9,9.9l0.1-7.4
			c0-2-1-3.6-2.6-4.2c-1.8-0.7-3.8,0.1-5.3,1.9L5.3,35.1h7.4l8.7-11.5l-0.1,7.7c0,2,1,3.6,2.6,4.2c1.8,0.7,3.8,0,5.3-1.8l6.9-9.9
			l-0.2,7.5c0,2,1,3.6,2.6,4.2c1.8,0.7,3.9-0.1,5.3-2l14.2-18.8h-7.4L41.9,26.4z"/>
	</g>
	<g id="XMLID_990_">
		<polygon id="XMLID_577_" class="st0" points="62.8,27.8 58.2,22.1 56,22.1 56,31.5 58.4,31.5 58.4,25.8 63,31.5 65.2,31.5 
			65.2,22.1 62.8,22.1 		"/>
		<path id="XMLID_531_" class="st0" d="M70.5,24.2c-2.4,0-4,1.5-4,3.8c0,2.3,1.6,3.7,4.1,3.7c1.4,0,2.5-0.4,3.3-1.3l0.1-0.1
			l-1.3-1.2l-0.1,0.1c-0.5,0.5-1.2,0.7-1.8,0.7c-0.9,0-1.5-0.4-1.8-1.2h5.4l0-0.1c0.1-1.4-0.2-2.5-0.9-3.3
			C72.8,24.6,71.8,24.2,70.5,24.2z M72.1,27.3h-3.2c0.2-0.8,0.8-1.3,1.6-1.3C71.4,26,72,26.5,72.1,27.3z"/>
		<path id="XMLID_498_" class="st0" d="M75.9,29.3c0,1.4,1,2.3,2.5,2.3c0.7,0,1.4-0.2,2-0.5l0.1,0L80,29.4l-0.1,0.1
			c-0.4,0.2-0.7,0.3-1,0.3c-0.2,0-0.3,0-0.4-0.1c-0.1-0.1-0.2-0.3-0.2-0.6v-2.8h2.1v-1.7h-2.1v-2h-2.4v2h-1.1v1.6h1.1V29.3z"/>
		<polygon id="XMLID_497_" class="st0" points="85.9,31.5 87.4,27.3 88.9,31.5 88.9,31.5 91.1,31.5 93.9,24.6 91.6,24.6 90.1,29.2 
			88.6,24.6 86.3,24.6 84.9,29.2 83.3,24.6 81,24.6 83.7,31.5 		"/>
		<path id="XMLID_494_" class="st0" d="M97.9,24.2c-2.5,0-4.2,1.5-4.2,3.7c0,2.2,1.7,3.7,4.2,3.7c2.5,0,4.2-1.5,4.2-3.7
			C102.1,25.7,100.4,24.2,97.9,24.2z M97.9,29.8c-1.1,0-1.8-0.7-1.8-1.8c0-1.1,0.7-1.8,1.8-1.8s1.8,0.7,1.8,1.8
			C99.7,29.1,99,29.8,97.9,29.8z"/>
		<path id="XMLID_493_" class="st0" d="M105.5,25.5v-1h-2.4v7h2.4v-3.4c0-0.5,0.2-0.9,0.5-1.2c0.4-0.4,1.1-0.5,1.9-0.5l0.1,0v-2.1
			l-0.1,0C106.9,24.5,106,24.8,105.5,25.5z"/>
		<polygon id="XMLID_492_" class="st0" points="111.5,29.6 112.4,28.8 114.2,31.5 117,31.5 114,27.3 117,24.5 114.1,24.5 
			111.5,26.9 111.5,22 109.1,22 109.1,31.5 111.5,31.5 		"/>
		<g id="XMLID_483_">
			<polygon id="XMLID_491_" class="st0" points="121.3,30.6 117.5,22.2 116.8,22.2 120.9,31.4 120.9,31.5 121.6,31.5 125.7,22.2 
				125.8,22.2 125,22.2 			"/>
			<rect id="XMLID_490_" x="126.8" y="24.5" class="st0" width="0.7" height="7"/>
			<path id="XMLID_489_" class="st0" d="M133.3,28c-0.3-0.1-0.7-0.3-1.3-0.4c-0.4-0.1-0.8-0.2-1-0.3c-0.2-0.1-0.5-0.2-0.6-0.4
				c-0.2-0.2-0.2-0.4-0.2-0.6c0-0.4,0.2-0.7,0.5-0.8c0.3-0.2,0.8-0.3,1.3-0.3c0.7,0,1.3,0.2,1.8,0.5l0,0l0.3-0.5l0,0
				c-0.6-0.4-1.4-0.5-2.1-0.5c-0.7,0-1.3,0.1-1.8,0.4c-0.5,0.3-0.7,0.7-0.7,1.3c0,0.4,0.1,0.7,0.3,1c0.2,0.2,0.5,0.4,0.8,0.6
				c0.3,0.1,0.7,0.3,1.2,0.4c0.4,0.1,0.8,0.2,1.1,0.3c0.3,0.1,0.5,0.2,0.6,0.4c0.2,0.2,0.2,0.4,0.2,0.7c0,0.4-0.2,0.7-0.5,0.9
				c-0.4,0.2-0.8,0.3-1.4,0.3c-0.5,0-0.9-0.1-1.3-0.2c-0.4-0.1-0.8-0.4-1.1-0.6l0,0l-0.3,0.5l0,0c0.3,0.3,0.8,0.5,1.2,0.7
				c0.5,0.2,1,0.3,1.5,0.3c0.7,0,1.4-0.2,1.9-0.5c0.5-0.3,0.8-0.8,0.8-1.4c0-0.4-0.1-0.8-0.3-1C133.9,28.3,133.6,28.1,133.3,28z"/>
			<rect id="XMLID_488_" x="136.2" y="24.5" class="st0" width="0.7" height="7"/>
			<path id="XMLID_485_" class="st0" d="M144.5,24.9c-0.6-0.3-1.2-0.4-1.9-0.4c-0.7,0-1.3,0.2-1.9,0.4c-0.6,0.3-1,0.7-1.3,1.2
				c-0.3,0.5-0.5,1.1-0.5,1.8c0,0.7,0.2,1.3,0.5,1.8c0.3,0.5,0.8,0.9,1.3,1.2c0.6,0.3,1.2,0.4,1.9,0.4c0.7,0,1.3-0.2,1.9-0.4
				c0.6-0.3,1-0.7,1.3-1.2c0.3-0.5,0.5-1.1,0.5-1.8c0-0.7-0.2-1.3-0.5-1.8C145.5,25.7,145,25.2,144.5,24.9z M142.5,30.9
				c-0.6,0-1.1-0.1-1.6-0.4c-0.5-0.2-0.8-0.6-1.1-1c-0.3-0.4-0.4-0.9-0.4-1.5c0-0.6,0.1-1.1,0.4-1.5c0.3-0.4,0.6-0.8,1.1-1
				c0.5-0.2,1-0.4,1.6-0.4c0.6,0,1.1,0.1,1.6,0.4c0.5,0.2,0.8,0.6,1.1,1c0.3,0.4,0.4,0.9,0.4,1.5c0,0.6-0.1,1.1-0.4,1.5
				c-0.3,0.4-0.6,0.8-1.1,1C143.7,30.8,143.1,30.9,142.5,30.9z"/>
			<path id="XMLID_484_" class="st0" d="M154,25.2c-0.5-0.5-1.2-0.7-2.1-0.7c-0.7,0-1.4,0.2-1.9,0.5c-0.5,0.3-0.8,0.6-1.1,1.1v-1.6
				h-0.7v7h0.7v-3.8c0.1-0.8,0.3-1.4,0.8-1.9c0.5-0.5,1.2-0.7,2-0.7c0.7,0,1.3,0.2,1.7,0.6c0.4,0.4,0.6,0.9,0.6,1.6v4.1h0.7v-4.2
				C154.7,26.4,154.5,25.7,154,25.2z"/>
		</g>
	</g>
</g>
</svg>
